<svg width="356" height="62" viewBox="0 0 356 62" fill="none" xmlns="http://www.w3.org/2000/svg">
<path d="M94.7907 13.5626H72.333V47.8655H78.5315V35.3843H94.7907C99.0999 35.3843 102.252 34.4161 104.247 32.4797C106.242 30.5433 107.239 27.8656 107.239 24.4465C107.239 21.0724 106.242 18.4126 104.247 16.4672C102.252 14.5218 99.0999 13.5536 94.7907 13.5626ZM100.989 25.2417C101.03 25.9978 100.904 26.7537 100.619 27.4645C100.334 28.1753 99.8961 28.8266 99.3308 29.3796C98.2253 30.422 96.4564 30.9432 94.0241 30.9432H78.5463V18.0374H94.0241C96.4564 18.0374 98.2253 18.5631 99.3308 19.6279C99.8909 20.1815 100.326 20.8309 100.61 21.5388C100.895 22.2466 101.024 22.9989 100.989 23.7524V25.2417Z" fill="white"/>
<path d="M145.109 31.7788C147.246 29.9816 148.317 27.3893 148.322 24.0017C148.327 20.614 147.276 18.0374 145.168 16.2717C143.06 14.4656 139.949 13.576 135.815 13.576H113.416V47.8789H119.614V34.488H133.736L142.89 47.8654H149.899L140.377 34.0027C142.135 33.6411 143.764 32.8757 145.109 31.7788ZM119.578 17.9228H135.055C137.552 17.9228 139.335 18.4283 140.406 19.4392C140.948 19.9668 141.369 20.5878 141.644 21.2659C141.92 21.944 142.046 22.6655 142.013 23.3884V24.7834C142.044 25.4949 141.917 26.2048 141.641 26.8706C141.365 27.5364 140.945 28.1445 140.406 28.6585C139.34 29.6469 137.556 30.1434 135.055 30.1479H119.578V17.9228Z" fill="white"/>
<path d="M162.037 32.547H181.996V28.1733H162.037V18.0374H186.942V13.5625H155.846V47.8654H187.156V43.3905H162.037V32.547Z" fill="white"/>
<path d="M228.917 13.5625L216.033 38.2013L203.201 13.5625H193.848V47.8654H199.443V17.8419L212.496 42.8918H218.967L232.071 17.9161V47.8654H238.322V13.5625H228.917Z" fill="white"/>
<path d="M253.438 13.5625H247.239V47.8654H253.438V13.5625Z" fill="white"/>
<path d="M292.583 34.0971C292.583 36.5816 292.112 38.5473 291.168 39.9939C290.221 41.4348 288.749 42.525 287.011 43.0738C284.848 43.7332 282.576 44.0433 280.297 43.9903C278.044 44.0384 275.8 43.7283 273.663 43.0738C271.924 42.527 270.452 41.4363 269.507 39.9939C268.563 38.5517 268.091 36.5861 268.091 34.0971V13.5625H261.893V34.2386C261.787 36.9901 262.481 39.718 263.905 42.1438C265.308 44.2992 267.462 45.9607 270.022 46.8613C273.317 47.9954 276.823 48.5266 280.341 48.4248C284.434 48.4248 287.805 47.9036 290.453 46.8613C292.945 45.9431 295.024 44.2803 296.35 42.1438C297.721 39.7029 298.386 36.9812 298.281 34.2386V13.5625H292.627L292.583 34.0971Z" fill="white"/>
<path d="M341.788 13.5625L328.904 38.2013L316.065 13.5625H306.719V47.8654H312.314V17.8419L325.367 42.8918H331.838L344.935 17.9161V47.8654H351.193V13.5625H341.788Z" fill="white"/>
<path d="M48.5716 5.16602H30.6553C28.4635 5.16761 26.362 6.03559 24.8128 7.57917C23.2635 9.12274 22.3932 11.2156 22.3932 13.3978V22.3105H13.7801C11.4958 22.3105 9.30499 23.2139 7.68971 24.8221C6.07444 26.4303 5.16699 28.6114 5.16699 30.8857C5.16699 33.16 6.07444 35.3411 7.68971 36.9493C9.30499 38.5575 11.4958 39.4609 13.7801 39.4609H22.3932V48.0301C22.3628 49.175 22.5629 50.3143 22.9819 51.3809C23.4009 52.4475 24.0302 53.4197 24.8328 54.2401C25.6353 55.0606 26.5948 55.7127 27.6546 56.158C28.7144 56.6033 29.853 56.8327 31.0033 56.8327C32.1537 56.8327 33.2923 56.6033 34.3521 56.158C35.4119 55.7127 36.3714 55.0606 37.1739 54.2401C37.9765 53.4197 38.6058 52.4475 39.0248 51.3809C39.4438 50.3143 39.6439 49.175 39.6135 48.0301V39.4609H48.5716C50.7634 39.4593 52.8649 38.5914 54.4141 37.0478C55.9634 35.5042 56.8336 33.4113 56.8336 31.2292V13.3978C56.8336 11.2156 55.9634 9.12274 54.4141 7.57917C52.8649 6.03559 50.7634 5.16761 48.5716 5.16602Z" fill="white"/>
</svg>
